<?xml version="1.0" standalone="no"?>
<!DOCTYPE svg PUBLIC "-//W3C//DTD SVG 20010904//EN"
 "http://www.w3.org/TR/2001/REC-SVG-20010904/DTD/svg10.dtd">
<svg version="1.0" xmlns="http://www.w3.org/2000/svg"
 width="2480.000000pt" height="2729.000000pt" viewBox="0 0 2480.000000 2729.000000"
 preserveAspectRatio="xMidYMid meet">

<g transform="translate(0.000000,2729.000000) scale(0.100000,-0.100000)"
fill="#000000" stroke="none">
<path d="M12002 23595 c-150 -7 -274 -14 -276 -16 -4 -5 42 -1070 46 -1073 2
-2 131 3 288 10 157 7 301 13 320 13 l35 1 -3 102 c-2 57 -7 106 -10 109 -4 3
-99 2 -211 -3 -166 -8 -206 -7 -212 4 -5 7 -9 55 -9 105 0 110 -16 100 178
106 72 2 135 6 138 10 3 3 3 52 -1 108 l-7 102 -158 -7 -157 -7 -7 47 c-3 26
-6 75 -6 109 l0 63 216 7 217 7 -7 82 c-3 44 -6 93 -6 109 0 32 40 30 -368 12z"/>
<path d="M12935 23576 c-152 -38 -304 -162 -364 -297 -97 -218 -55 -454 109
-619 170 -169 416 -209 628 -101 31 16 71 40 89 53 l32 24 -72 82 c-67 78 -72
81 -91 67 -72 -52 -99 -60 -201 -60 -119 0 -162 17 -237 97 -66 69 -91 140
-86 239 5 91 31 151 94 213 70 70 122 91 229 91 78 0 97 -4 140 -27 28 -15 62
-38 76 -51 l26 -25 82 71 83 72 -51 47 c-120 111 -326 163 -486 124z"/>
<path d="M11160 23519 c-195 -26 -360 -48 -366 -49 -7 0 -6 -32 4 -102 7 -57
16 -105 18 -107 2 -3 61 3 131 12 70 9 128 15 130 13 2 -2 28 -190 58 -417 30
-228 56 -419 57 -424 2 -7 39 -6 111 3 91 12 107 17 103 31 -10 36 -110 831
-104 836 3 3 62 13 131 22 145 19 133 3 114 142 -7 46 -17 85 -22 87 -6 1
-170 -20 -365 -47z"/>
<path d="M13656 23528 c-12 -35 -33 -194 -28 -199 4 -3 62 -14 130 -24 68 -10
124 -21 126 -24 2 -3 -27 -195 -64 -426 -37 -231 -67 -421 -66 -422 4 -5 207
-35 211 -32 1 2 33 193 70 424 36 231 68 421 69 423 2 1 61 -7 130 -19 70 -11
129 -19 131 -17 8 7 37 199 31 205 -3 3 -155 30 -338 59 -183 29 -348 56 -366
59 -22 4 -34 2 -36 -7z"/>
<path d="M14545 23303 c-10 -43 -63 -279 -119 -526 l-103 -447 36 -10 c69 -17
174 -40 176 -38 11 18 234 1042 228 1048 -6 6 -181 50 -198 50 -2 0 -11 -35
-20 -77z"/>
<path d="M10045 23311 c-175 -50 -307 -182 -371 -371 -14 -40 -19 -82 -18
-155 1 -164 58 -292 176 -399 69 -62 157 -109 249 -131 330 -78 662 185 662
525 1 252 -157 461 -402 534 -72 21 -217 20 -296 -3z m228 -206 c72 -19 122
-50 175 -110 51 -58 76 -129 75 -217 0 -120 -76 -232 -192 -287 -46 -22 -70
-26 -136 -25 -93 0 -147 21 -219 85 -129 113 -137 325 -18 460 51 58 150 103
237 108 12 1 46 -6 78 -14z"/>
<path d="M15166 23155 c-147 -41 -294 -159 -354 -285 -76 -161 -77 -322 -2
-478 94 -196 280 -312 498 -312 140 0 271 57 378 164 83 83 124 161 149 281
57 275 -124 557 -402 629 -73 19 -199 19 -267 1z m279 -237 c83 -43 142 -116
169 -208 21 -70 20 -104 -4 -183 -26 -83 -88 -155 -168 -194 -49 -24 -69 -28
-142 -28 -65 0 -96 5 -131 21 -90 42 -154 116 -183 214 -21 70 -20 104 4 183
26 84 88 154 173 197 58 30 68 31 147 28 67 -4 96 -10 135 -30z"/>
<path d="M8950 22966 c-228 -81 -300 -109 -300 -117 0 -10 358 -977 368 -994
5 -10 31 -4 105 23 53 20 97 39 97 42 0 4 -31 89 -69 191 -37 101 -67 186 -65
188 2 2 90 -61 196 -139 106 -79 197 -143 204 -143 6 0 63 19 127 43 l117 43
-172 128 c-94 71 -174 131 -176 134 -3 3 8 20 26 38 76 78 102 221 63 340 -42
125 -110 197 -227 238 -86 30 -180 26 -294 -15z m244 -205 c78 -44 89 -182 20
-242 -11 -9 -56 -30 -102 -47 l-83 -30 -10 26 c-56 145 -90 246 -86 255 5 13
90 46 147 57 42 9 75 3 114 -19z"/>
<path d="M15966 22428 c-121 -266 -223 -491 -228 -501 -7 -14 -1 -21 34 -36
24 -11 68 -30 99 -44 l56 -25 123 270 c73 160 126 264 130 256 4 -7 78 -192
166 -410 87 -218 162 -394 165 -390 11 12 451 983 447 987 -6 6 -180 85 -187
85 -4 0 -61 -119 -127 -265 -65 -145 -121 -265 -124 -265 -3 0 -79 185 -170
410 -90 226 -164 410 -165 410 0 0 -99 -217 -219 -482z"/>
<path d="M8200 22640 c-19 -5 -121 -51 -226 -102 l-191 -93 231 -477 c127
-262 234 -480 238 -484 11 -10 188 77 188 93 0 7 -29 72 -65 143 -36 71 -65
132 -65 135 0 3 45 28 101 55 116 59 179 115 215 194 55 121 52 234 -8 349
-60 112 -178 185 -310 192 -40 3 -89 0 -108 -5z m170 -232 c57 -39 75 -72 75
-137 0 -83 -32 -122 -143 -173 -46 -22 -88 -36 -92 -31 -5 4 -38 69 -73 144
l-65 137 86 41 c103 49 160 54 212 19z"/>
<path d="M17490 21674 c-245 -157 -469 -299 -498 -318 l-53 -32 93 -62 c52
-34 98 -62 103 -62 4 0 41 20 81 45 l73 46 151 -101 c99 -66 150 -106 149
-118 0 -9 -6 -49 -13 -89 l-13 -72 99 -66 c54 -36 98 -63 98 -60 0 3 43 262
95 575 52 313 95 576 95 585 0 8 -3 15 -7 14 -5 -1 -208 -129 -453 -285z m158
-259 c-11 -61 -22 -112 -24 -113 -1 -2 -37 20 -80 48 l-77 53 98 63 c55 35
100 62 101 61 1 -1 -7 -52 -18 -112z"/>
<path d="M6787 21836 c-42 -29 -80 -56 -83 -59 -4 -4 561 -863 587 -891 7 -8
522 324 535 346 5 8 -101 178 -110 178 -3 0 -84 -52 -180 -115 -97 -63 -178
-115 -180 -115 -2 0 -109 160 -237 355 -129 195 -238 354 -244 354 -5 0 -45
-24 -88 -53z"/>
<path d="M18172 21149 l-351 -420 67 -56 c37 -31 74 -63 83 -70 15 -12 37 11
204 212 104 124 190 223 192 221 3 -2 27 -199 53 -436 27 -238 50 -434 52
-435 4 -3 691 818 695 831 2 6 -32 40 -76 77 l-80 67 -108 -128 c-59 -70 -144
-171 -188 -224 -44 -53 -83 -94 -86 -90 -3 4 -27 201 -53 437 -27 237 -49 431
-50 432 -1 1 -160 -187 -354 -418z"/>
<path d="M6154 21353 c3 -10 73 -268 156 -573 83 -305 153 -556 155 -558 2 -3
41 26 87 64 46 37 85 69 87 71 3 2 -5 42 -18 90 -18 71 -20 88 -9 99 7 7 71
60 142 117 l129 106 79 -40 c67 -34 81 -38 96 -27 10 7 51 40 90 72 l73 59
-532 268 c-292 148 -533 269 -536 269 -2 0 -2 -8 1 -17z m474 -460 l62 -35
-72 -59 c-39 -32 -73 -57 -74 -56 -2 3 -64 216 -64 222 0 6 56 -21 148 -72z"/>
<path d="M18946 20472 l-388 -376 133 -132 c144 -141 215 -187 329 -214 256
-61 525 95 630 365 34 85 34 232 2 326 -32 95 -72 151 -202 287 l-116 121
-388 -377z m428 26 c20 -23 47 -64 61 -92 57 -114 21 -264 -86 -360 -77 -69
-130 -91 -219 -91 -86 1 -143 25 -220 94 l-45 41 230 225 c127 123 233 225
237 225 3 0 23 -19 42 -42z"/>
<path d="M5650 20814 c-125 -33 -249 -121 -319 -225 -115 -173 -116 -425 -1
-597 106 -159 262 -243 450 -245 167 -1 286 49 399 168 94 100 151 228 151
344 l0 44 -102 -6 c-109 -7 -118 -11 -118 -62 0 -45 -43 -128 -90 -175 -66
-66 -138 -95 -235 -94 -50 1 -93 7 -115 17 -213 96 -274 350 -126 524 42 48
122 93 184 102 l47 6 3 108 3 107 -38 -1 c-21 0 -63 -7 -93 -15z"/>
<path d="M4852 20066 l-70 -83 409 -344 c225 -189 413 -345 417 -346 8 -2 135
151 133 161 0 4 -146 129 -323 278 -178 149 -362 304 -410 345 l-86 73 -70
-84z"/>
<path d="M4645 19686 c-69 -22 -119 -53 -166 -103 -49 -50 -249 -310 -249
-322 1 -5 636 -488 821 -624 l38 -28 60 80 c34 44 61 84 61 90 0 5 -70 63
-157 128 -185 140 -194 131 118 109 117 -9 214 -15 215 -13 1 1 37 47 79 102
l76 100 -33 6 c-18 4 -118 13 -221 19 -184 13 -188 14 -183 34 19 66 18 108
-5 178 -20 63 -31 82 -88 139 -88 87 -143 113 -246 116 -46 2 -97 -3 -120 -11z
m153 -220 c53 -28 85 -72 90 -124 5 -56 -5 -80 -72 -164 l-46 -57 -120 91
-120 91 23 31 c13 17 34 46 48 64 50 70 137 99 197 68z"/>
<path d="M20005 19292 c-319 -63 -581 -116 -583 -117 -2 -2 101 -155 125 -184
3 -4 108 13 158 25 17 4 39 -20 125 -142 57 -81 103 -152 103 -158 0 -6 -19
-42 -42 -79 -23 -38 -41 -72 -39 -76 8 -17 124 -181 129 -181 7 0 612 1020
607 1024 -1 2 -264 -49 -583 -112z m139 -229 c-59 -101 -95 -153 -104 -148
-13 8 -102 136 -98 140 2 2 53 15 113 29 61 13 112 24 113 25 2 1 -9 -20 -24
-46z"/>
<path d="M3949 18807 c-90 -150 -164 -275 -164 -279 0 -7 904 -558 915 -558 6
0 0 -10 186 297 l152 252 -91 57 c-77 48 -92 54 -102 41 -6 -8 -55 -89 -110
-181 -55 -91 -104 -166 -109 -166 -11 0 -176 101 -176 108 0 2 37 65 81 139
45 73 80 135 78 137 -19 16 -180 108 -183 105 -2 -2 -39 -62 -82 -134 -42 -71
-79 -132 -81 -134 -2 -3 -164 91 -182 105 -3 3 138 244 206 350 12 20 8 24
-74 74 -49 29 -91 54 -94 56 -3 2 -79 -119 -170 -269z"/>
<path d="M20660 18652 c-248 -136 -315 -177 -361 -222 -91 -90 -139 -223 -125
-353 8 -89 71 -211 137 -271 124 -111 305 -145 451 -84 77 32 618 330 618 340
0 5 -23 48 -50 97 l-50 89 -302 -166 c-333 -182 -357 -190 -444 -157 -63 24
-98 57 -124 117 -38 89 -13 191 61 249 19 15 160 96 314 180 154 83 282 153
284 155 3 3 -86 174 -98 186 -3 3 -143 -69 -311 -160z"/>
<path d="M3650 18335 c0 -1 95 -175 211 -385 116 -210 207 -385 203 -389 -8
-7 -833 -171 -859 -171 -5 0 215 -106 490 -234 l500 -234 46 96 47 97 -72 35
c-39 19 -127 61 -196 94 -99 46 -121 60 -105 66 11 4 124 26 250 50 127 24
232 44 234 46 2 2 -53 104 -122 228 -69 125 -122 226 -118 226 5 0 62 -25 127
-56 65 -31 152 -72 192 -90 l73 -33 45 96 c25 52 43 97 41 99 -2 2 -188 90
-413 195 -557 261 -574 268 -574 264z"/>
<path d="M21369 17829 l-97 -41 49 -115 c27 -63 49 -120 49 -127 0 -6 -177
-85 -393 -175 -215 -90 -393 -165 -394 -166 -2 -1 16 -45 39 -99 31 -72 46
-96 57 -93 9 2 183 74 386 160 204 85 376 157 384 159 9 2 30 -37 64 -117 28
-66 51 -121 52 -122 3 -5 195 80 195 86 0 11 -281 676 -288 683 -4 4 -50 -11
-103 -33z"/>
<path d="M3102 17053 c-17 -54 -28 -100 -24 -104 4 -4 147 -53 319 -109 171
-55 326 -111 345 -123 138 -93 121 -294 -32 -373 -68 -34 -112 -26 -447 84
-171 56 -316 102 -321 102 -12 0 -74 -193 -64 -202 13 -12 656 -216 702 -222
138 -19 328 72 405 194 32 51 61 137 69 200 18 153 -78 340 -213 413 -42 23
-672 237 -698 237 -5 0 -23 -44 -41 -97z"/>
<path d="M21332 16850 c-239 -63 -401 -270 -402 -515 0 -166 55 -301 166 -405
67 -62 174 -121 254 -139 170 -39 377 18 499 139 271 267 203 715 -134 879
-132 65 -246 77 -383 41z m285 -233 c69 -36 120 -88 152 -156 37 -80 37 -192
0 -272 -33 -69 -89 -127 -155 -160 -41 -20 -64 -24 -139 -24 -108 0 -163 22
-236 95 -77 77 -110 210 -79 322 14 49 66 125 112 161 90 72 241 87 345 34z"/>
<path d="M4920 14471 l0 -1921 375 0 375 0 2 1042 3 1043 1040 -994 c572 -547
1079 -1032 1128 -1080 l87 -86 0 1923 0 1922 -375 0 -375 0 -2 -1041 -3 -1041
-950 907 c-522 499 -1030 984 -1127 1078 l-178 169 0 -1921z"/>
<path d="M12052 16370 c-6 -14 -387 -871 -847 -1905 -461 -1034 -840 -1888
-842 -1897 -5 -17 19 -18 396 -18 l402 0 48 103 c26 56 85 186 131 290 l84
187 642 0 642 0 100 -227 c55 -126 113 -256 128 -290 l27 -63 404 0 c381 0
405 1 400 18 -3 9 -384 865 -847 1902 -463 1037 -845 1894 -850 1905 -8 19 -8
19 -18 -5z m183 -2181 c88 -209 162 -385 163 -390 2 -5 -127 -9 -327 -9 -182
0 -331 3 -331 8 0 12 325 772 330 772 3 0 77 -172 165 -381z"/>
<path d="M14815 14473 c-467 -1050 -850 -1911 -852 -1916 -3 -4 179 -6 402 -5
l407 3 114 255 c63 140 121 270 129 288 l15 32 642 -2 643 -3 126 -285 127
-285 407 -3 c246 -1 405 1 403 7 -18 51 -1704 3821 -1709 3821 -3 0 -387 -858
-854 -1907z m1028 -290 c87 -205 157 -377 157 -383 0 -7 -108 -10 -325 -10
-250 0 -325 3 -325 12 0 25 323 769 330 761 4 -4 77 -175 163 -380z"/>
<path d="M18640 16339 c-111 -13 -242 -53 -355 -108 -285 -140 -513 -411 -599
-711 -71 -249 -52 -539 47 -737 102 -201 361 -438 611 -557 50 -25 208 -86
350 -136 143 -51 273 -98 290 -105 59 -25 111 -72 141 -126 25 -47 30 -67 33
-151 3 -71 0 -109 -12 -146 -54 -161 -195 -262 -371 -265 -72 -2 -87 1 -147
31 -119 58 -203 171 -215 288 l-6 54 -384 0 -384 0 6 -50 c3 -27 7 -74 10
-102 39 -377 330 -758 696 -909 252 -103 560 -111 823 -20 272 95 545 351 662
621 20 45 47 125 61 178 24 87 26 115 26 277 1 208 -14 281 -83 420 -69 141
-235 312 -418 432 -141 93 -265 144 -541 224 -141 40 -298 129 -378 214 -141
149 -117 402 50 539 77 63 129 81 237 81 88 0 101 -3 162 -33 111 -55 187
-156 211 -282 l12 -60 377 0 378 0 0 38 c-2 204 -93 468 -221 637 -260 345
-646 512 -1069 464z"/>
<path d="M8310 14435 l0 -1885 375 0 375 0 0 564 0 564 383 5 c410 5 445 8
617 67 376 129 704 466 824 848 56 179 73 439 40 633 -32 188 -119 392 -234
546 -73 99 -244 263 -338 326 -94 63 -258 140 -352 167 -170 47 -220 50 -977
50 l-713 0 0 -1885z m1410 1125 c98 -15 216 -77 292 -153 111 -111 165 -227
175 -377 7 -104 -19 -221 -68 -308 -46 -80 -160 -190 -239 -230 -109 -54 -168
-62 -512 -62 l-308 0 0 570 0 570 298 0 c163 0 326 -5 362 -10z"/>
<path d="M2806 16093 c-17 -61 -36 -186 -29 -193 4 -4 123 -31 263 -59 140
-29 266 -56 280 -60 26 -8 23 -10 -492 -364 -113 -78 -203 -145 -200 -148 11
-11 1041 -221 1055 -216 10 4 47 156 47 194 0 5 -128 36 -285 69 -157 32 -285
61 -285 64 0 3 163 117 361 253 198 137 359 250 357 252 -2 2 -235 51 -518
110 -283 58 -523 108 -532 111 -10 3 -18 -2 -22 -13z"/>
<path d="M21656 15654 c-285 -45 -521 -85 -524 -88 -6 -6 24 -195 32 -204 3
-3 95 9 203 27 109 17 205 31 213 31 8 0 -68 -83 -169 -184 l-183 -183 231
-119 c203 -105 228 -120 203 -126 -15 -3 -108 -19 -207 -34 -99 -15 -184 -30
-189 -35 -7 -6 19 -197 28 -206 3 -4 1067 165 1072 169 1 2 -168 91 -378 198
-209 107 -385 198 -391 202 -8 5 103 123 303 323 205 205 308 315 295 314 -11
-1 -253 -39 -539 -85z"/>
<path d="M21300 14383 c0 -37 3 -91 6 -119 l6 -51 78 -32 79 -32 5 -62 c3 -34
7 -117 8 -184 l3 -121 -77 -38 -78 -38 0 -119 c0 -65 4 -117 9 -115 76 29
1066 525 1058 530 -7 3 -253 104 -547 223 -294 119 -538 219 -542 222 -5 2 -8
-26 -8 -64z m480 -359 c52 -21 98 -40 102 -43 6 -5 -125 -70 -194 -96 -16 -7
-18 1 -18 84 0 50 3 91 7 91 4 0 50 -16 103 -36z"/>
<path d="M3425 13792 c-130 -60 -97 -243 46 -259 108 -12 185 120 125 212 -37
57 -108 76 -171 47z"/>
<path d="M22175 13206 c-4 -75 -10 -136 -13 -136 -4 0 -197 14 -430 31 -233
16 -425 29 -427 27 -1 -2 -6 -50 -10 -108 l-7 -106 421 -29 c232 -16 426 -32
432 -35 7 -5 6 -48 -1 -135 -5 -71 -9 -129 -8 -130 2 -1 51 -6 111 -9 l107 -7
0 33 c0 18 11 186 25 373 19 262 21 341 12 347 -7 4 -35 8 -63 8 -28 0 -72 3
-96 6 l-45 6 -8 -136z"/>
<path d="M3227 12994 c-86 -27 -163 -126 -192 -244 -32 -134 -45 -168 -76
-194 -43 -37 -98 -35 -141 3 -28 25 -33 36 -33 75 0 36 6 51 29 75 17 17 38
31 49 31 15 0 18 5 14 23 -3 12 -9 62 -12 110 l-8 89 -35 -7 c-92 -17 -193
-100 -235 -193 -30 -67 -30 -188 1 -257 29 -63 92 -129 157 -163 44 -24 61
-27 145 -27 109 0 135 10 200 78 54 55 94 141 120 254 26 114 41 133 103 140
43 5 49 3 82 -30 57 -57 46 -136 -27 -173 l-30 -16 6 -71 c12 -123 16 -137 40
-137 38 0 140 56 178 98 68 76 83 115 83 222 0 112 -18 160 -83 227 -87 89
-221 124 -335 87z"/>
<path d="M21250 12543 c-1 -5 -7 -51 -14 -103 -8 -52 -12 -97 -11 -98 5 -5
1059 -150 1063 -146 5 3 33 206 30 209 -4 3 -1038 145 -1055 145 -7 0 -13 -3
-13 -7z"/>
<path d="M3664 12269 c-10 -12 -82 -80 -158 -153 -91 -85 -141 -126 -144 -117
-11 33 -77 90 -134 117 -82 37 -179 39 -285 6 -124 -38 -210 -145 -234 -289
-11 -63 -9 -81 20 -233 18 -91 37 -186 42 -211 l10 -46 527 105 c290 58 528
106 529 107 2 1 -7 50 -18 108 -20 99 -23 106 -43 102 -44 -11 -370 -75 -379
-75 -5 0 71 78 169 173 l177 173 -23 119 c-12 66 -26 123 -30 128 -3 4 -15 -2
-26 -14z m-526 -363 c53 -28 71 -58 91 -155 13 -66 15 -94 7 -96 -35 -12 -279
-56 -283 -51 -9 9 -32 130 -33 171 0 106 123 180 218 131z"/>
<path d="M21491 12134 c-135 -36 -272 -144 -334 -262 -48 -91 -67 -168 -67
-272 0 -150 51 -271 160 -380 77 -77 140 -113 246 -140 190 -49 368 -1 515
137 81 77 131 167 155 283 59 280 -120 563 -401 635 -74 19 -203 18 -274 -1z
m283 -233 c63 -31 118 -86 153 -153 24 -46 28 -64 28 -138 0 -106 -26 -170
-95 -234 -79 -74 -121 -91 -225 -91 -108 0 -161 20 -227 87 -72 71 -93 126
-93 238 0 79 4 102 23 137 43 82 107 139 191 170 58 21 186 13 245 -16z"/>
<path d="M3765 11428 c-55 -16 -101 -31 -103 -33 -1 -1 24 -94 58 -205 33
-112 59 -204 57 -205 -6 -6 -177 -55 -190 -55 -9 0 -18 8 -21 18 -3 9 -21 73
-41 142 -21 69 -40 128 -44 132 -9 10 -192 -43 -197 -57 -3 -6 15 -75 39 -155
24 -80 43 -146 42 -147 -4 -7 -200 -61 -204 -57 -3 3 -31 93 -63 201 -31 108
-59 198 -62 200 -8 8 -201 -53 -200 -63 1 -5 41 -145 90 -312 58 -198 92 -301
100 -298 6 2 236 71 510 151 275 81 502 150 505 154 5 4 -152 558 -174 612 -1
4 -47 -7 -102 -23z"/>
<path d="M8580 10450 l0 -750 150 0 150 0 2 406 3 406 380 -362 c209 -199 406
-388 438 -418 l57 -56 0 752 0 752 -145 0 -145 0 0 -405 c0 -223 -3 -405 -6
-405 -3 0 -201 187 -439 415 -239 228 -436 415 -439 415 -3 0 -6 -337 -6 -750z"/>
<path d="M11920 10450 l0 -750 145 0 145 0 0 405 c0 223 3 405 8 405 4 0 192
-176 417 -391 226 -215 422 -403 438 -417 l27 -26 0 752 0 752 -150 0 -150 0
-2 -404 -3 -404 -433 414 c-239 228 -436 414 -438 414 -2 0 -4 -337 -4 -750z"/>
<path d="M10488 11180 c-155 -28 -267 -89 -388 -210 -137 -138 -196 -251 -221
-426 -34 -239 48 -472 223 -640 195 -188 453 -253 718 -183 245 66 456 278
521 526 22 81 31 275 15 321 l-7 22 -365 0 -364 0 0 -150 0 -150 210 0 c116 0
210 -4 210 -8 0 -23 -76 -132 -118 -170 -179 -162 -447 -157 -617 13 -175 176
-174 457 4 634 165 164 403 176 592 30 l35 -28 104 104 c118 119 117 107 14
181 -74 53 -167 96 -253 119 -75 19 -246 28 -313 15z"/>
<path d="M16759 11167 c-129 -44 -241 -159 -280 -289 -30 -96 -24 -221 13
-293 65 -125 176 -206 372 -275 162 -56 186 -77 186 -157 0 -32 -7 -66 -16
-82 -41 -70 -138 -95 -207 -52 -34 21 -67 73 -67 105 0 14 -19 16 -150 16
l-150 0 0 -34 c0 -19 9 -62 19 -95 96 -310 482 -419 721 -204 104 93 151 194
153 328 1 124 -20 174 -112 265 -83 83 -145 118 -270 154 -175 51 -248 147
-193 256 63 125 242 98 277 -42 l7 -28 145 0 146 0 -5 64 c-10 119 -90 246
-198 316 -112 72 -264 90 -391 47z"/>
<path d="M7560 10440 l0 -740 440 0 440 0 0 150 0 150 -295 0 -295 0 0 145 0
145 220 0 220 0 0 150 0 150 -220 0 -220 0 0 150 0 150 295 0 295 0 0 145 0
145 -440 0 -440 0 0 -740z"/>
<path d="M11470 10440 l0 -740 150 0 150 0 0 740 0 740 -150 0 -150 0 0 -740z"/>
<path d="M13250 10440 l0 -740 440 0 440 0 0 150 0 150 -295 0 -295 0 0 145 0
145 223 2 222 3 3 148 3 147 -226 0 -226 0 3 148 3 147 293 3 292 2 0 145 0
145 -440 0 -440 0 0 -740z"/>
<path d="M14270 10440 l0 -740 445 0 445 0 0 150 0 150 -295 0 -295 0 0 145 0
145 220 0 220 0 0 150 0 150 -220 0 -220 0 0 150 0 150 295 0 295 0 0 145 0
145 -445 0 -445 0 0 -740z"/>
<path d="M15290 10440 l0 -740 150 0 150 0 2 287 3 287 184 -283 c102 -156
190 -285 196 -287 6 -3 88 -3 182 -2 l172 3 -165 254 c-91 139 -163 255 -162
256 2 1 30 16 63 33 79 39 147 114 193 209 33 71 36 85 40 187 7 180 -27 275
-138 386 -30 30 -83 69 -116 87 -109 58 -147 63 -466 63 l-288 0 0 -740z m591
423 c123 -56 154 -222 61 -326 -54 -59 -82 -67 -227 -67 l-125 0 0 211 0 211
123 -4 c97 -3 131 -8 168 -25z"/>
<path d="M20922 11013 c-18 -53 -29 -99 -25 -103 4 -4 128 -49 276 -100 147
-52 267 -96 267 -99 0 -3 -168 -90 -373 -193 -204 -103 -380 -193 -390 -200
-15 -11 36 -32 390 -157 225 -79 456 -161 514 -182 l107 -38 36 101 c20 55 35
102 34 103 -2 1 -123 45 -269 96 -147 52 -267 98 -269 103 -1 5 173 98 386
207 343 175 385 199 364 207 -132 49 -998 352 -1005 352 -6 0 -25 -43 -43 -97z"/>
<path d="M3980 10701 c-64 -25 -94 -42 -92 -52 2 -8 34 -95 73 -193 38 -99 68
-184 66 -191 -4 -10 -162 -75 -184 -75 -5 0 -34 62 -63 138 -30 75 -57 141
-61 146 -4 5 -51 -9 -103 -30 -86 -33 -96 -40 -90 -58 4 -12 29 -77 55 -145
27 -68 49 -127 49 -131 0 -4 -43 -24 -96 -45 -77 -30 -98 -35 -105 -24 -4 7
-40 98 -80 200 l-72 187 -51 -20 c-28 -11 -70 -27 -93 -35 -24 -8 -45 -19 -48
-24 -6 -8 210 -576 225 -592 9 -10 1000 374 1000 388 0 13 -220 578 -228 587
-4 4 -50 -10 -102 -31z"/>
<path d="M3872 9794 l-483 -246 50 -91 c27 -51 53 -92 58 -92 4 0 122 58 261
128 140 71 255 127 257 125 2 -2 -52 -190 -121 -417 -69 -227 -123 -415 -120
-418 7 -7 966 479 966 490 0 5 -21 49 -46 98 l-47 88 -260 -130 c-142 -72
-261 -128 -263 -126 -3 3 172 595 242 820 3 9 2 17 -3 17 -4 -1 -225 -111
-491 -246z"/>
<path d="M20423 9751 l-53 -99 50 -65 c28 -37 50 -71 50 -78 0 -6 -37 -81 -82
-166 l-83 -155 -91 7 -92 6 -52 -96 c-28 -53 -49 -100 -45 -103 5 -6 1176
-102 1182 -98 4 3 -716 941 -724 943 -4 1 -32 -42 -60 -96z m323 -599 c-2 -2
-47 1 -100 7 -52 6 -102 11 -111 11 -22 0 -19 11 26 94 l41 76 74 -92 c40 -51
72 -94 70 -96z"/>
<path d="M4350 8904 c-250 -151 -456 -279 -458 -284 -4 -10 95 -180 105 -180
5 0 902 538 915 549 5 5 -87 170 -103 185 -2 2 -209 -120 -459 -270z"/>
<path d="M19917 8868 c-24 -35 -52 -75 -61 -90 l-17 -26 126 -88 c69 -48 128
-90 130 -94 2 -3 -23 -47 -56 -96 -78 -117 -92 -163 -87 -273 7 -152 79 -260
216 -324 59 -28 77 -31 152 -31 104 1 177 27 244 85 40 35 111 131 254 340
l31 46 -362 251 c-199 137 -399 275 -444 306 l-82 56 -44 -62z m498 -515 c69
-48 125 -90 125 -95 0 -5 -24 -44 -54 -86 -76 -108 -146 -137 -233 -96 -57 28
-87 77 -88 144 0 51 4 63 44 121 46 66 71 99 78 99 2 0 59 -39 128 -87z"/>
<path d="M4669 8681 c-67 -21 -149 -67 -203 -114 l-40 -34 129 -179 c71 -98
140 -196 154 -216 14 -21 29 -37 33 -38 4 0 46 28 92 62 54 39 82 66 77 72
-94 122 -169 236 -158 243 6 4 44 7 83 7 126 -1 231 -69 289 -189 58 -118 31
-269 -65 -365 -178 -178 -475 -98 -546 147 -9 30 -14 73 -12 94 4 45 12 41
-124 62 l-88 14 0 -87 c0 -158 50 -280 160 -391 116 -117 289 -175 455 -151
274 40 469 268 468 547 -1 245 -166 457 -403 520 -77 21 -231 18 -301 -4z"/>
<path d="M19406 8153 c-36 -42 -66 -80 -66 -83 0 -6 206 -184 233 -202 6 -3
-18 -40 -57 -86 -36 -44 -79 -107 -94 -139 -23 -51 -27 -70 -27 -153 0 -81 4
-103 27 -152 35 -75 94 -138 170 -179 61 -33 67 -34 173 -34 173 0 202 19 410
266 l125 148 -402 338 c-222 187 -408 342 -415 346 -7 4 -37 -23 -77 -70z
m472 -542 c62 -52 111 -98 110 -103 -2 -4 -29 -39 -61 -77 -43 -51 -71 -75
-103 -87 -76 -29 -143 -6 -191 66 -26 37 -31 120 -10 156 27 46 122 152 132
146 5 -3 61 -49 123 -101z"/>
<path d="M5313 7668 c-186 -171 -366 -338 -400 -370 l-63 -60 72 -78 72 -78
37 32 c20 17 119 107 219 201 l183 170 -6 -448 -6 -447 392 361 c216 199 398
367 404 373 10 9 -4 30 -61 91 l-73 80 -44 -40 c-24 -21 -120 -109 -212 -194
-93 -86 -173 -157 -178 -159 -5 -2 -6 74 -4 175 10 363 14 703 10 703 -3 0
-157 -140 -342 -312z"/>
<path d="M18690 7355 l-225 -225 75 -75 75 -75 153 152 153 153 302 -308 302
-308 77 78 78 78 -378 378 c-207 207 -379 377 -382 377 -3 0 -106 -101 -230
-225z"/>
<path d="M6232 7189 l-71 -81 152 -135 c84 -75 156 -139 161 -144 5 -4 -23
-43 -63 -88 l-73 -80 -114 102 c-63 56 -118 103 -123 105 -9 3 -141 -142 -140
-154 0 -5 52 -54 115 -109 63 -55 114 -102 114 -105 0 -5 -84 -104 -131 -154
-4 -5 -70 46 -146 114 -76 68 -148 133 -161 144 l-23 21 -60 -65 c-32 -36 -64
-73 -69 -82 -9 -14 28 -51 225 -227 129 -116 239 -211 243 -211 10 0 712 787
712 798 0 7 -333 310 -445 404 l-32 27 -71 -80z"/>
<path d="M18318 7012 c-42 -37 -77 -70 -77 -73 -1 -5 546 -630 671 -767 l39
-43 77 67 c42 37 78 70 79 73 3 6 -627 724 -685 783 l-27 27 -77 -67z"/>
<path d="M17931 6644 c-184 -49 -337 -206 -385 -394 -7 -30 -13 -56 -12 -57 1
-2 38 -7 82 -13 43 -6 91 -13 106 -16 23 -5 27 -1 33 28 21 94 94 180 192 225
49 22 65 25 141 21 64 -3 98 -10 130 -27 58 -29 115 -89 149 -153 24 -46 28
-65 28 -138 0 -101 -20 -154 -85 -224 -55 -60 -132 -97 -215 -104 -74 -5 -68
4 -85 -126 -6 -44 -8 -82 -4 -85 10 -11 137 -5 194 9 190 45 349 198 401 385
22 80 17 237 -10 315 -29 83 -99 188 -159 240 -57 49 -167 104 -240 119 -72
15 -196 13 -261 -5z"/>
<path d="M7297 6227 c-57 -83 -165 -243 -241 -354 -75 -112 -139 -203 -142
-203 -3 0 -52 32 -109 70 -57 39 -108 70 -112 70 -4 0 -34 -39 -65 -87 l-57
-86 112 -76 c62 -42 203 -138 313 -213 l202 -137 56 84 c31 47 56 89 56 93 0
5 -47 41 -105 81 -58 40 -105 74 -105 76 0 3 76 116 168 252 93 137 201 296
240 355 l72 107 -89 61 -90 60 -104 -153z"/>
<path d="M17312 6232 l-93 -57 3 -94 3 -93 -153 -90 -152 -90 -55 38 c-31 22
-63 44 -73 51 -14 10 -33 3 -115 -44 -53 -32 -96 -61 -95 -65 2 -4 220 -160
486 -347 329 -232 482 -334 482 -323 1 39 -134 1172 -139 1171 -4 0 -48 -26
-99 -57z m-42 -539 c6 -49 14 -100 16 -115 3 -16 3 -28 0 -28 -3 0 -46 30 -96
67 -56 41 -87 70 -81 76 12 12 134 86 142 87 4 0 12 -39 19 -87z"/>
<path d="M7880 6033 c0 -15 7 -109 15 -208 8 -99 15 -187 15 -195 0 -12 -12
-14 -60 -12 -115 7 -231 -70 -298 -195 -60 -113 -62 -211 -8 -330 41 -88 102
-138 299 -247 99 -53 180 -96 181 -94 9 11 505 926 508 936 2 7 -36 34 -89 63
l-92 50 -35 -63 c-19 -35 -64 -116 -100 -182 -76 -140 -67 -156 -91 164 -9
118 -17 215 -18 216 -1 0 -38 20 -82 44 -44 23 -95 52 -112 62 l-33 20 0 -29z
m110 -674 c41 -22 78 -44 82 -48 10 -9 -126 -255 -143 -258 -24 -5 -152 80
-176 116 -46 68 -22 156 56 208 50 34 94 29 181 -18z"/>
<path d="M16170 5610 c-47 -22 -89 -41 -94 -43 -6 -2 70 -176 167 -388 97
-212 177 -390 177 -395 0 -6 -53 -35 -118 -65 l-119 -54 42 -93 c23 -51 44
-94 47 -97 3 -4 673 298 685 309 1 1 -18 44 -42 96 -27 58 -49 94 -57 92 -7
-2 -62 -26 -121 -53 -59 -27 -109 -49 -111 -49 -2 0 -84 176 -182 390 -98 215
-181 390 -184 390 -3 0 -43 -18 -90 -40z"/>
<path d="M8836 5490 c-230 -40 -395 -189 -457 -410 -22 -79 -16 -215 13 -297
63 -179 165 -283 346 -351 56 -21 84 -25 172 -25 88 0 116 4 172 25 199 75
321 214 363 413 18 88 18 122 0 210 -43 202 -192 365 -385 418 -73 21 -164 27
-224 17z m174 -232 c134 -40 223 -162 224 -308 1 -66 -3 -84 -32 -142 -36 -73
-86 -123 -161 -160 -66 -32 -196 -32 -262 0 -75 37 -125 87 -161 159 -28 58
-33 77 -33 143 0 63 5 85 29 134 76 154 232 223 396 174z"/>
<path d="M15625 5382 c-49 -19 -91 -36 -93 -37 -3 -2 377 -997 383 -1004 2 -2
49 13 103 34 l99 37 -63 167 c-35 91 -122 316 -192 500 -70 184 -132 336 -137
337 -6 1 -50 -14 -100 -34z"/>
<path d="M14970 5165 c-107 -24 -199 -76 -271 -153 -107 -113 -159 -236 -159
-377 0 -136 53 -274 142 -370 147 -159 372 -218 571 -151 99 33 168 77 234
150 228 249 176 640 -110 827 -116 76 -273 104 -407 74z m245 -234 c59 -26
131 -95 163 -156 24 -44 27 -62 27 -145 0 -87 -3 -100 -30 -148 -88 -160 -271
-221 -428 -144 -209 103 -251 359 -87 524 45 45 70 61 121 77 77 25 166 22
234 -8z"/>
<path d="M10165 4934 c-22 -80 -42 -149 -45 -154 -3 -5 -44 2 -90 16 -126 37
-201 41 -279 14 -172 -58 -264 -183 -265 -360 -1 -75 3 -93 30 -151 41 -85 89
-138 161 -176 50 -26 401 -133 436 -133 11 0 305 1026 296 1034 -4 4 -192 56
-201 56 -2 0 -21 -66 -43 -146z m-185 -348 c63 -18 75 -25 72 -42 -3 -17 -67
-251 -77 -281 -5 -15 -170 29 -204 55 -44 33 -64 69 -69 124 -3 44 0 59 20 88
56 83 121 97 258 56z"/>
<path d="M14201 4964 c-40 -7 -76 -15 -78 -18 -3 -2 16 -131 42 -286 26 -155
45 -283 43 -286 -3 -2 -166 106 -364 240 -197 135 -361 243 -363 241 -3 -4
169 -1066 174 -1073 2 -2 207 29 212 32 1 1 -20 132 -46 291 -27 160 -48 291
-47 292 1 2 166 -109 367 -246 200 -137 365 -248 366 -247 3 2 -163 1016 -172
1054 -6 26 -23 27 -134 6z"/>
<path d="M11034 4886 c-2 -12 -15 -81 -28 -154 -13 -73 -26 -135 -29 -138 -2
-3 -44 2 -93 11 -119 23 -213 17 -286 -17 -80 -37 -149 -105 -184 -181 -26
-55 -29 -73 -29 -162 0 -93 2 -105 32 -166 38 -78 102 -141 176 -174 52 -24
452 -103 463 -92 7 6 195 1049 190 1054 -1 2 -49 11 -105 21 l-101 19 -6 -21z
m-189 -492 c50 -9 91 -18 93 -19 4 -3 -49 -308 -54 -314 -2 -2 -47 4 -100 14
-84 15 -101 22 -135 52 -68 62 -74 153 -15 221 30 34 76 61 106 62 8 0 56 -7
105 -16z"/>
<path d="M11672 4819 c-145 -28 -276 -146 -328 -292 -12 -35 -64 -617 -64
-721 l0 -33 102 -7 c55 -3 103 -4 106 -1 3 3 17 159 32 347 29 376 29 378 99
441 103 93 262 63 328 -63 29 -55 29 -77 1 -453 -17 -239 -19 -300 -9 -306 14
-9 193 -23 199 -16 10 10 53 637 49 712 -6 109 -44 192 -124 272 -105 104
-248 148 -391 120z"/>
<path d="M12532 4779 c-65 -26 -146 -103 -174 -166 -26 -60 -35 -159 -18 -218
26 -95 133 -178 285 -223 40 -12 86 -35 108 -52 33 -28 37 -36 37 -78 -1 -128
-157 -154 -207 -34 -10 23 -19 32 -29 28 -9 -3 -56 -6 -106 -6 l-91 0 7 -41
c11 -71 46 -136 97 -184 74 -70 127 -90 229 -90 77 1 91 4 148 35 110 59 163
142 170 266 5 100 -6 138 -61 200 -58 66 -112 97 -238 139 -120 40 -139 56
-139 118 0 31 7 46 34 73 58 58 141 42 172 -32 l14 -34 105 0 105 0 0 38 c0
85 -85 203 -182 253 -63 33 -194 37 -266 8z"/>
</g>
</svg>
